<?xml version="1.0" standalone="no"?>
<!DOCTYPE svg PUBLIC "-//W3C//DTD SVG 20010904//EN"
 "http://www.w3.org/TR/2001/REC-SVG-20010904/DTD/svg10.dtd">
<svg version="1.0" xmlns="http://www.w3.org/2000/svg"
 width="512.000000pt" height="512.000000pt" viewBox="0 0 512.000000 512.000000"
 preserveAspectRatio="xMidYMid meet">

<g transform="translate(0.000000,512.000000) scale(0.100000,-0.100000)"
fill="#000000" stroke="none">
<path d="M2130 4426 c-30 -6 -77 -23 -105 -36 -55 -27 -82 -52 -730 -685 -541
-528 -589 -572 -666 -618 -91 -53 -204 -87 -330 -97 -59 -5 -122 -15 -141 -23
-48 -20 -105 -73 -131 -121 l-22 -41 0 -800 0 -800 27 -46 c15 -26 42 -59 60
-74 63 -54 86 -58 338 -65 213 -7 243 -10 323 -34 95 -28 174 -65 264 -123
138 -88 316 -152 478 -172 122 -15 926 -15 997 0 207 44 350 236 319 430 -8
47 -30 109 -58 160 -2 4 9 10 24 14 101 25 214 120 260 219 25 54 28 72 28
156 -1 94 -4 106 -53 202 -2 4 405 9 905 10 l908 3 58 27 c81 38 168 124 203
201 38 82 40 201 5 289 -48 122 -172 218 -308 238 -39 5 -370 10 -768 11
l-700 1 130 28 c72 15 342 71 600 125 338 69 487 104 530 124 75 34 145 103
182 179 25 51 28 67 28 162 0 96 -3 110 -29 165 -57 114 -166 195 -294 215
-57 10 -131 -1 -1074 -160 -557 -93 -1062 -179 -1123 -189 -60 -10 -111 -18
-113 -16 -2 2 82 100 187 219 105 118 206 235 225 260 99 130 102 352 6 491
-60 87 -166 154 -275 174 -71 13 -94 13 -165 -3z m210 -191 c90 -46 135 -129
128 -237 -2 -35 -12 -79 -21 -98 -9 -19 -128 -161 -263 -315 -345 -391 -344
-390 -344 -429 0 -30 21 -59 57 -80 12 -6 305 41 1951 318 531 89 565 94 612
82 64 -17 113 -55 139 -109 49 -101 7 -232 -92 -283 -15 -8 -493 -111 -1062
-229 -569 -118 -1043 -219 -1054 -224 -54 -30 -42 -128 19 -150 24 -8 357 -11
1207 -11 1148 0 1175 0 1212 -20 66 -33 121 -118 121 -186 0 -71 -57 -155
-128 -190 -35 -18 -91 -19 -1104 -24 -1051 -5 -1068 -5 -1087 -25 -59 -58 -21
-137 70 -148 104 -13 185 -92 196 -191 10 -83 -38 -165 -121 -209 -36 -19 -62
-22 -214 -27 -168 -5 -175 -6 -193 -29 -43 -52 -6 -141 58 -141 49 0 102 -20
139 -52 120 -106 96 -272 -51 -351 -39 -21 -52 -22 -455 -25 -257 -2 -456 1
-523 8 -162 16 -300 65 -440 154 -207 132 -371 176 -658 176 -191 0 -237 9
-258 48 -8 14 -11 253 -11 771 l0 750 23 26 c20 24 32 27 128 36 182 15 350
77 484 178 28 21 322 303 653 627 332 324 620 598 640 608 80 42 161 42 242 1z"/>
</g>
</svg>
